<?xml version="1.0" standalone="no"?>
<!DOCTYPE svg PUBLIC "-//W3C//DTD SVG 20010904//EN"
 "http://www.w3.org/TR/2001/REC-SVG-20010904/DTD/svg10.dtd">
<svg version="1.0" xmlns="http://www.w3.org/2000/svg"
 width="700.000000pt" height="700.000000pt" viewBox="0 0 700.000000 700.000000"
 preserveAspectRatio="xMidYMid meet">
<metadata>
Created by potrace 1.14, written by Peter Selinger 2001-2017
</metadata>
<g transform="translate(0.000000,700.000000) scale(0.100000,-0.100000)"
fill="#000000" stroke="none">
<path d="M1419 6322 l-56 -3 0 -2857 0 -2857 201 2 c110 1 563 4 1006 7 443 2
816 6 830 9 14 3 50 8 80 11 304 29 732 150 1046 296 315 147 610 377 822 640
43 52 80 97 83 100 13 11 139 209 181 286 135 244 247 547 304 818 11 51 43
246 49 291 3 28 8 59 10 71 18 82 25 523 12 714 -13 188 -38 369 -74 520 -8
36 -17 76 -19 90 -13 67 -81 279 -130 398 -119 292 -267 526 -464 728 -75 78
-186 173 -260 224 -19 13 -37 27 -40 30 -13 16 -229 145 -322 192 -247 127
-555 220 -838 253 -176 21 -206 23 -395 31 -158 7 -1917 12 -2026 6z m2006
-366 c180 -14 243 -21 340 -37 33 -6 71 -12 85 -14 14 -3 36 -7 50 -10 14 -2
36 -7 50 -9 147 -26 397 -110 557 -186 430 -205 728 -524 917 -982 65 -156
140 -441 160 -603 4 -27 9 -63 12 -80 34 -206 40 -746 10 -902 -2 -11 -7 -44
-11 -73 -4 -29 -9 -62 -11 -74 -2 -12 -7 -37 -10 -56 -14 -82 -58 -253 -90
-355 -161 -501 -458 -900 -867 -1169 -75 -49 -261 -156 -271 -156 -3 0 -43
-18 -89 -39 -164 -78 -428 -155 -662 -195 -117 -20 -152 -24 -355 -41 -35 -3
-1011 -6 -1446 -5 l-70 0 3 427 c4 589 4 3612 0 4133 -2 234 0 428 5 431 11 7
1585 3 1693 -5z"/>
<path d="M2706 5603 c-1 -1 -140 -3 -310 -5 -169 -2 -310 -7 -313 -12 -15 -24
1 -4236 16 -4245 23 -14 1042 -2 1181 14 19 2 62 6 95 9 33 4 77 9 98 12 20 3
47 7 60 9 322 43 645 158 882 313 195 129 399 341 524 542 93 152 197 403 227
549 3 12 11 51 19 85 19 83 42 235 50 326 4 41 9 93 11 115 5 49 5 463 0 525
-21 258 -58 458 -122 650 -35 105 -132 309 -176 372 -187 265 -408 440 -707
558 -185 73 -421 130 -646 156 -33 3 -69 8 -79 10 -62 11 -800 27 -810 17z
m849 -387 c54 -4 102 -9 105 -11 3 -2 26 -6 50 -9 215 -27 453 -117 624 -236
276 -192 454 -497 521 -890 13 -77 17 -108 30 -235 5 -45 5 -439 1 -500 -8
-101 -18 -210 -21 -215 -2 -3 -6 -30 -10 -60 -10 -81 -59 -265 -95 -356 -75
-189 -194 -383 -305 -497 -55 -56 -223 -187 -240 -187 -3 0 -23 -11 -45 -25
-186 -117 -380 -190 -615 -230 -99 -17 -158 -26 -206 -31 -30 -3 -65 -7 -79
-9 -94 -16 -790 -29 -809 -15 -9 7 -8 3504 1 3510 11 8 973 4 1093 -4z"/>
</g>
</svg>
