<?xml version="1.0" encoding="UTF-8" standalone="no"?>
<!-- Created with Inkscape (http://www.inkscape.org/) -->

<svg
   version="1.1"
   id="svg1"
   width="642.20398"
   height="187.55238"
   viewBox="0 0 642.20398 187.55239"
   xmlns="http://www.w3.org/2000/svg"
   xmlns:svg="http://www.w3.org/2000/svg">
  <defs
     id="defs1" />
  <g
     id="g1"
     transform="translate(-76.54985,-239.18139)">
    <path
       style="display:inline;fill:#275d3f;fill-opacity:1"
       d="M 505.92608,424.19951 C 435.23712,408.60169 407.54453,322.30976 458.00713,268.81675 485.69222,239.46909 530.2282,230.268 567.96393,249.91653 l 7.52528,3.91832 8.97846,-4.57255 c 68.98442,-35.13234 148.10108,26.88064 132.23174,103.89609 -12.17044,59.06435 -76.81693,90.5036 -131.48939,64.19277 l -9.62995,-5.24463 -8.22601,4.55258 c -9.87456,5.46495 -33.60834,13.67892 -61.42798,7.5404 z m 33.11043,-10.97967 c 10.83626,-1.88969 22.13131,-6.19386 30.3067,-11.54888 l 6.25883,-4.09964 6.55509,4.13991 c 54.75671,34.58196 124.35516,-4.88825 124.60606,-67.74667 0.26704,-66.90382 -73.80032,-105.52119 -127.40326,-67.98338 l -3.7432,2.62134 -6.70571,-4.27496 c -48.36758,-30.83485 -112.59118,-1.74098 -123.45386,54.83162 -10.48665,54.61424 38.79373,103.61447 93.57935,94.06066 z M 517.98997,402.3591 c -49.37527,-6.50125 -75.88083,-57.23915 -55.10895,-99.63669 17.83833,-36.40986 62.57298,-50.72849 97.92909,-29.90656 7.42243,4.37122 6.32351,3.1522 0.48087,10.26329 -2.4822,3.0211 -6.22863,8.93812 -8.37025,13.06312 -14.66521,28.24674 -10.28415,64.31775 9.36462,88.23234 5.51957,6.71788 5.8313,4.42207 -0.48366,8.2138 -12.68202,7.61477 -27.74031,11.88683 -43.81172,9.7707 z m 23.71706,-13.51095 c 2.16041,-0.57888 6.82379,-2.60823 6.82379,-2.60823 l -4.11192,-6.89593 c -16.14701,-27.07948 -16.20292,-63.62451 -0.56408,-91.00061 l 4.83182,-8.70789 -5.57932,-1.8031 c -39.2556,-12.68645 -76.68035,19.90929 -75.29767,55.52517 1.08375,27.91583 16.29868,42.30506 30.59262,50.55767 17.66503,10.19891 36.53678,6.74639 43.30476,4.93292 z m 75.61771,13.39922 c -11.0797,-1.16635 -22.41157,-5.36548 -32.3843,-12.5061 -1.0425,-0.74645 0.43702,-0.63204 4.56769,-6.00969 22.75983,-29.63063 23.74037,-70.35851 0.99841,-99.96546 -2.88489,-3.75574 -6.33371,-7.26433 -6.12948,-7.39755 22.51686,-14.68781 43.31299,-15.45227 59.92997,-10.529 21.65206,6.41506 31.17175,18.05369 35.33052,23.00304 10.72626,12.76534 22.96573,41.92655 10.45047,70.47189 -10.32217,23.54325 -27.4529,36.13332 -48.63911,41.68882 -3.24656,0.85132 -12.42745,1.49027 -13.80245,1.6442 -1.375,0.15394 -5.36473,0.12166 -9.54415,-0.3183 z m 21.6504,-12.82019 c 57.7768,-14.75046 60.40339,-96.61069 0.16711,-112.75096 -17.40792,-4.66444 -34.48474,1.59929 -36.28841,3.40296 -0.27573,0.27573 4.28755,6.47376 7.15564,12.24876 7.23203,14.56196 9.26512,31.65147 9.26512,41.63662 0,16.58089 -5.35076,31.57613 -10.16994,41.27973 -2.86809,5.775 -6.20289,10.32754 -6.37288,10.68654 -0.28252,0.59666 7.76957,3.08269 12.6046,4.16596 4.68264,1.04914 15.44057,1.42339 23.63876,-0.66961 z m -68.60552,-13.68216 c -19.3375,-24.86268 -19.80651,-59.43621 -0.3028,-84.80347 7.16169,-9.31476 3.84422,-9.32525 11.17928,0.0204 19.47919,24.81865 18.9269,59.86697 -0.79049,85.30569 -4.97001,6.41214 -5.05232,5.94928 -7.41905,2.90632 z m 11.76065,-30.28046 c 3.42093,-12.76709 -0.53874,-30.65503 -3.08049,-35.05795 l -3.49548,-6.05503 -3.2884,6.10433 c -3.30182,6.12924 -4.68132,17.39538 -4.68132,23.50865 0,6.11327 1.79829,16.986 5.55059,23.33479 l 2.72465,4.61003 2.40762,-4.44482 c 1.58024,-2.91735 2.91678,-8.46931 3.86283,-12 z M 76.54985,332.97283 v -92.73427 l 58.65485,-0.023 c 25.96401,-0.0102 42.8033,3.97719 60.75288,17.32522 19.64544,14.60914 30.03462,41.65991 29.49591,73.55186 -0.53121,31.44698 -12.33829,59.67864 -36.64167,76.38889 -16.94861,11.65334 -40.7455,16.07824 -52.91202,16.13032 l -59.34995,0.25402 z m 57.40433,79.17727 c 25.11484,-0.72508 46.72579,-9.83158 60.65988,-25.62191 13.93409,-15.79033 20.07971,-38.4505 18.90442,-62.60185 -2.743,-56.36651 -37.52849,-72.2108 -80.38997,-72.22748 l -44.970666,-0.0175 0.392006,81.20317 -0.403756,79.37815 h 26.272766 c 18.23473,0 13.54064,0.0605 19.53532,-0.11258 z M 99.549852,333.08081 v -69.48469 l 29.815648,-0.33076 c 49.37286,-0.54774 73.75657,18.51379 72.13689,69.51825 -0.54325,17.10706 -4.2804,33.35627 -15.51469,46.00306 -11.23428,12.64678 -26.87067,21.69615 -62.78999,21.63754 l -11.64454,-0.019 -11.644548,-0.019 z m 60.619938,49.79059 c 12.79682,-6.62668 18.06361,-10.03446 24.61874,-24.17869 4.39487,-9.48295 5.34455,-20.56849 5.18663,-33.22815 -0.46159,-37.00366 -21.77387,-49.90697 -49.53535,-49.95854 l -28.87386,-0.0536 0.22551,57.91182 -0.25839,55.15157 19.56092,0.0375 c 0,0 20.37568,-1.17662 29.0758,-5.68187 z m 44.38006,40.47128 c 0,-0.57442 15.12481,-38.75943 33.61069,-86.17251 18.48587,-47.41309 34.52332,-88.56811 35.63878,-91.45561 l 2.09987,-5.42941 h 17.75426 c 16.04056,0 17.43103,-0.32193 18.5327,0.58535 0.597,0.49166 70.08514,178.94724 70.85188,181.66019 0.68805,1.95108 -0.51493,1.13342 -18.60001,1.17112 l -19.06428,0.0203 -6.44595,-16.55597 -7.61529,-19.03907 -37.4183,-0.0133 c 0,0 -37.19244,-0.28134 -37.44574,0.29656 -0.8385,1.91302 -7.11107,17.98911 -7.11107,17.98911 l -6.9728,17.39872 -18.76129,-0.18546 c -12.4883,0 -19.05345,0.41907 -19.05345,-0.27 z m 36.62485,-28.62812 7.11432,-18.4176 45.5782,0.0264 45.59996,-0.0802 7.20694,18.47139 7.04663,17.57198 h 5.90052 4.80435 c 0.8318,0 1.89762,0.17763 -0.12496,-5.07198 -1.10929,-2.87917 -15.14919,-38.62902 -31.00045,-79.32902 l -29.49681,-76.24084 -9.95531,0.0356 -9.75152,0.0515 -30.74106,79.45725 c -16.5585,42.79918 -30.76154,78.60965 -31.11593,79.57215 -0.68305,1.83026 0.80095,1.54215 6.04959,1.54215 h 5.95329 z m 13.50647,-34.5 c 1.14606,-2.89153 9.48456,-24.375 18.50752,-47.75 9.02296,-23.375 16.83477,-43.7375 17.43934,-45.25 0.51187,-1.2806 0.71467,-2.6565 1.37337,-3.27001 0.6587,-0.6135 1.83855,-0.46461 2.55367,-0.37462 0.75044,0.0944 1.03124,-0.16118 1.67933,1.15146 0.64809,1.31263 1.66347,4.19352 2.31695,5.99317 1.24821,3.4375 9.6865,25.375 18.75174,48.75 9.06524,23.375 16.70676,43.04341 16.98114,44.00591 0.46935,1.64637 -1.81293,0.89571 -40.48111,0.89571 l -40.73864,-0.0727 z m 62.55955,-7.95909 c 0,-0.8306 -21.44757,-54.35924 -22.27491,-56.6545 -0.58629,-1.62652 -0.6483,-2.17581 -0.98355,-1.96308 -0.33526,0.21272 -0.94375,1.18746 -1.24882,1.98438 -3.91576,10.22888 -21.93988,56.14862 -22.30477,56.74689 -0.25159,0.4125 10.37971,0.29597 23.06217,0.29597 12.68246,0 23.74988,-0.0296 23.74988,-0.40962 z m 72.06493,69.18527 c -0.0399,-0.54492 -0.13633,-38.32477 -0.13633,-88.83311 l 0.11821,-92.99425 17.31906,-0.0567 h 18 l -0.0568,93.40792 v 90.71744 h -17.33333 c -9.53333,0 -16.62321,0.11593 -17.79203,-0.1319 z m 23.2442,-88.47618 c 0,0 0.13946,-73.8677 0,-79.5 -0.0588,-2.37297 -0.75143,-1.84242 -6.18094,-1.81584 -5.15379,0.0252 -5.5762,-0.62682 -5.61349,3.23447 -0.14707,15.23 0.17495,78.08137 0.17495,78.08137 0,0 -0.14984,72.89446 -0.17909,76.37044 -0.0248,2.95128 -0.0198,2.95653 3.23883,2.95653 3.0669,0 3.05974,0.0259 3.05974,0.0259 h 2.75 c 3.18884,0 2.87991,0.52285 2.87991,-5.05824 0,-9.86037 -0.12991,-74.29463 -0.12991,-74.29463 z"
       id="path13" />
  </g>
</svg>
