<svg width="24" height="27" viewBox="0 0 24 27" fill="none" xmlns="http://www.w3.org/2000/svg">
<path fill-rule="evenodd" clip-rule="evenodd" d="M23.64 6.99317L23.4533 6.65984C23.2125 6.25676 22.8729 5.92174 22.4667 5.6865L13.52 0.526504C13.1149 0.291504 12.6551 0.167331 12.1867 0.166504H11.8C11.3316 0.167331 10.8717 0.291504 10.4667 0.526504L1.52 5.69984C1.11596 5.93352 0.780346 6.26913 0.546667 6.67317L0.36 7.0065C0.125 7.41162 0.000826666 7.87149 0 8.33984V18.6732C0.000826666 19.1416 0.125 19.6014 0.36 20.0065L0.546667 20.3398C0.786386 20.7392 1.12065 21.0734 1.52 21.3132L10.48 26.4732C10.8831 26.713 11.3443 26.8376 11.8133 26.8332H12.1867C12.6551 26.8324 13.1149 26.7082 13.52 26.4732L22.4667 21.2998C22.8747 21.0714 23.2116 20.7345 23.44 20.3265L23.64 19.9932C23.8721 19.5869 23.9961 19.1278 24 18.6598V8.3265C23.9992 7.85816 23.8751 7.39829 23.64 6.99317ZM11.8 2.83317H12.1867L20 7.33984L12 11.9532L4 7.33984L11.8 2.83317ZM13.3333 23.4998L21.1333 18.9932L21.3333 18.6598V9.6465L13.3333 14.2732V23.4998Z" fill="#00F088"/>
</svg>
